<svg width="81" height="65" viewBox="0 0 81 65" fill="none"
     xmlns="http://www.w3.org/2000/svg">
<g filter="url(#filter0_d_87_311)">
<path fill-rule="evenodd" clip-rule="evenodd"
      d="M27.8297 19.5267C27.4038 19.561 26.3317 19.7469 25.82
      19.8751C23.5481 20.4445 21.4781 21.6222 19.794
      23.3035C17.9955 25.0989 16.778 27.3264 16.2559
      29.7765C16.0373 30.8025 16 31.1986 16 32.494C16
      34.0231 16.1055 34.8103 16.4882 36.1367C16.9459
      37.7229 17.8115 39.3646 18.9 40.7111C20.1249
      42.2261 21.9176 43.5927 23.7357 44.3975C26.1216
      45.4535 28.9485 45.7695 31.4932 45.2648C33.2281 44.9207 34.7118
      44.3099 36.1742 43.3379C37.01 42.7824 37.531 42.3584 38.206
      41.6845C40.0045 39.8891 41.222 37.6616 41.7441 35.2115C41.9627
      34.1855 42 33.7894 42 32.494C42 30.9649 41.8945 30.1777 41.5118
      28.8513C41.0541 27.265 40.1885 25.6234 39.1 24.2769C37.8277
      22.7033 35.9986 21.3326 34.0686 20.5066C32.9657 20.0345 31.5044
      19.6613 30.3013 19.5444C29.7856 19.4944 28.3582 19.484 27.8297
      19.5267ZM30.0496 21.7991C32.1829 22.08 34.0412 22.8968 35.6912
      24.2788C37.1772 25.5234 38.3246 27.2371 38.9471 29.1415C39.0247 29.379
      39.0939 29.5802 39.1009 29.5886C39.1078 29.597 39.3933 29.5796 39.7353
       29.55C40.4157 29.491 40.6572 29.5246 40.9136 29.7139C41.229 29.9466
       41.3574 30.5151 41.1725 30.8595C41.0257 31.1326 39.3202 33.0816
       39.1023 33.2251C38.9434 33.3298 38.8391 33.3575 38.6037 33.3575C38.2498
        33.3575 38.0565 33.27 37.7757 32.9828C37.6631 32.8676 37.2031 32.4581
        36.7535 32.0728C36.2493 31.6407 35.8917 31.2934 35.8203 31.1665C35.6572
        30.8769 35.6644 30.5341 35.8398 30.2353C36.0153 29.9364 36.2635 29.8102
        36.7584 29.7684C36.9889 29.749 37.1409 29.7134 37.1409 29.6789C37.1409
        29.4422 36.5127 28.1416 36.1105 27.5457C34.4954 25.1526 31.9095 23.715
        29.0509 23.6212C26.5357 23.5386 24.2613 24.4326 22.4914 26.1995C20.7351
        27.9529 19.8195 30.2657 19.909 32.7226C19.9392 33.5506 19.9863 33.8891
        20.1743 34.6274C20.5667 36.1681 21.3085 37.4735 22.451 38.6338C23.572
        39.7721 24.9931 40.6019 26.4733 40.982C29.9331 41.8706 33.452 40.6986
        35.6998 37.9089C36.1116 37.3978 36.308 37.2693 36.6785 37.269C37.2158
        37.2685 37.5988 37.6476 37.5988 38.1798C37.5988 38.4929 37.5228 38.6514
        37.1463 39.1224C34.906 41.9259 31.2958 43.4589 27.7451 43.1143C22.6344
        42.6184 18.5901 38.6107 18.0564 33.5132C17.9821 32.8033 18.0219 31.3932
        18.1355 30.7162C18.9135 26.0752 22.6765 22.4255 27.3209 21.807C28.0359
        21.7118 29.3575 21.708 30.0496 21.7991ZM27.336 29.2216C27.7439 29.3271
        27.9939 29.4588 28.2716 29.7143C28.675 30.0855 28.846 30.5201 28.8455
        31.1733C28.8451 31.7069 28.7073 32.1309 28.369 32.6389C28.1437 32.9772
        27.2987 33.8508 26.8121 34.2484C26.6862 34.3513 26.5755 34.4558 26.5662
        34.4806C26.5566 34.5062 27.0809 34.5258 27.7746
        34.5258H29V35.1353V35.7449H26.6849H24.3699V35.2949V34.845L25.0435
        34.2409C26.0235 33.3622 26.7572 32.6158 27.003 32.2476C27.4474
        31.5817 27.481 31.0303 27.1015 30.6282C26.7167 30.2204 25.9034
        30.2451 25.1684 30.687L24.8853 30.8572L24.6719 30.3272C24.4262
        29.7169 24.4053 29.7749 24.9702 29.4983C25.6474 29.1665 26.6636
        29.0476 27.336 29.2216ZM34.0881
        31.1479V33.0527H34.4951H34.9022V33.6094V34.166L34.5078 34.1808L34.1135
        34.1956L34.0995 34.9703L34.0854 35.7449H33.4012H32.7169L32.7029
        34.9703L32.6888 34.1956L31.226 34.1822L29.7632 34.1687V33.7061V33.2435L30.8412
        31.51C31.4341 30.5565 31.9958 29.6564 32.0894 29.5098L32.2595 29.2431H33.1738H34.0881V31.1479ZM32.409 30.9231C32.2551 31.2366 31.919 31.8383 31.662 32.2602L31.1949 33.0273L31.9362 33.0415C32.344 33.0492 32.6862 33.0469 32.6968 33.0363C32.7074 33.0258 32.7099 32.4177 32.7024 31.685L32.6888 30.3529L32.409 30.9231Z"
        fill="#808080"/>
</g>
<defs>
<filter id="filter0_d_87_311" x="-23" y="-19.5" width="104"
        height="104" filterUnits="userSpaceOnUse" color-interpolation-filters="sRGB">
<feFlood flood-opacity="0" result="BackgroundImageFix"/>

<feOffset/>
<feGaussianBlur stdDeviation="19.5"/>
<feComposite in2="hardAlpha" operator="out"/>
<feColorMatrix type="matrix" values="0 0 0 0 1 0 0 0 0 0.94902 0 0 0 0 0.262745 0 0 0 0.55 0"/>
<feBlend mode="normal" in2="BackgroundImageFix" result="effect1_dropShadow_87_311"/>
<feBlend mode="normal" in="SourceGraphic" in2="effect1_dropShadow_87_311" result="shape"/>
</filter>
</defs>
</svg>
