<svg width="190" height="150" viewBox="0 0 190 150" fill="none" xmlns="http://www.w3.org/2000/svg">
<g clip-path="url(#clip0_97_20)">
<mask id="mask0_97_20" style="mask-type:alpha" maskUnits="userSpaceOnUse" x="-22" y="-33" width="257" height="262">
<rect x="-21.5227" y="-33" width="256.519" height="261.019" fill="url(#paint0_linear_97_20)"/>
</mask>
<g mask="url(#mask0_97_20)">
<path fill-rule="evenodd" clip-rule="evenodd" d="M72.8798 -6.9036C68.1013 -1.73305 67.7808 -1.31537 66.2632 1.72421C63.6764 6.90568 63.1088 14.0297 64.8468 19.5067C65.3328 21.0377 66.6478 23.6205 67.9418 25.5854C70.3435 29.2323 70.5834 30.8127 68.2703 27.7477C65.0343 23.4602 61.0615 21.0391 52.8592 18.3557C49.8649 17.3759 47.3423 16.6165 47.2532 16.6677C47.1642 16.7188 46.2444 19.3623 45.2088 22.5423C43.032 29.2272 42.4893 33.3177 43.1995 37.688C44.5228 45.8303 50.6604 53.9695 57.5981 56.7821C59.408 57.5161 59.651 57.7282 59.5083 58.4491C59.3052 59.4751 59.3127 59.4769 57.3237 57.9055C52.8348 54.3583 47.1802 52.8062 37.8692 52.5648C34.7028 52.4827 32.0386 52.4648 31.9496 52.5254C31.5894 52.7689 31.4279 65.0114 31.7517 67.5039C32.7101 74.8805 36.534 81.303 42.6766 85.8537C46.6528 88.7993 49.4098 89.9373 54.5901 90.77C56.991 91.1561 58.9343 91.5774 58.9088 91.7062C58.8833 91.8349 57.2882 91.8272 55.3645 91.6887C49.9183 91.2966 46.4645 92.037 39.0531 95.1843C35.5161 96.6865 32.5979 98.0372 32.5685 98.186C32.4983 98.5406 36.6468 108.171 37.8867 110.532C40.0802 114.709 45.1153 119.383 49.9 121.685C53.3893 123.363 59.1513 124.503 63.0198 124.281C65.9592 124.112 69.6746 123.221 72.5471 121.998C74.954 120.972 75.1164 120.934 75.2729 121.359C75.3517 121.572 74.1838 122.118 72.6776 122.572C69.0543 123.664 65.5805 125.545 62.6955 127.977C60.5777 129.761 52.4233 139.583 52.2243 140.588C52.0984 141.224 62.1937 148.94 65.1331 150.454C68.8531 152.37 75.1925 153.624 79.3685 153.269C85.476 152.75 91.2085 150.415 95.5775 146.667C97.0302 145.421 98.2458 144.291 98.2795 144.155C98.3126 144.019 98.6342 143.644 98.994 143.321C99.5269 142.841 99.7308 142.835 100.096 143.29C100.485 143.772 100.309 144.062 98.7866 145.449C95.1829 148.732 92.4561 153.23 91.1351 158.073L90.3277 161.031L95.7538 162.105L101.18 163.179L101.851 161.139C102.764 158.364 104.368 155.666 106.171 153.869C106.997 153.045 107.755 152.388 107.854 152.407C107.953 152.427 108.402 153.323 108.853 154.4C109.836 156.748 110.29 159.854 110.077 162.767L109.921 164.91L115.346 165.984L120.772 167.058L121.153 164.015C121.776 159.035 120.969 153.837 118.888 149.428C118.009 147.566 117.957 147.231 118.5 146.933C119.011 146.652 119.197 146.735 119.507 147.381C119.717 147.817 119.871 148.287 119.85 148.425C119.735 149.187 123.25 155.197 124.92 157.094C127.197 159.68 131.162 162.726 134.298 164.297C137.626 165.965 144.254 167.204 148.097 166.877C151.328 166.602 163.664 163.315 163.786 162.696C163.966 161.785 160.492 150.275 159.266 147.72C157.635 144.322 154.735 140.661 151.747 138.227C150.526 137.232 149.652 136.28 149.806 136.113C150.113 135.78 150.248 135.877 152.083 137.742C159.168 144.944 169.459 147.763 178.915 145.094C182.582 144.058 185.975 142.366 188.507 140.31C190.583 138.624 197.382 132.033 197.899 131.206C198.112 130.864 196.73 129.224 193.282 125.728C187.612 119.977 184.706 117.979 179.517 116.265C177.686 115.661 176.208 115.06 176.233 114.931C176.259 114.802 178.195 115.148 180.536 115.7C185.715 116.92 189.036 116.928 193.521 115.73C201.033 113.722 206.891 109.312 210.563 102.901C211.812 100.719 216.327 89.3387 216.087 88.9763C216.027 88.8863 213.557 87.8879 210.598 86.7575C201.898 83.4334 196.078 82.7141 190.576 84.2836C188.139 84.9787 188.146 84.9799 188.349 83.9539C188.492 83.233 188.798 83.1294 190.751 83.1404C194.366 83.161 199.284 81.645 202.753 79.4406C208.721 75.6485 212.225 71.0032 214.112 64.3838C214.733 62.205 215.947 50.4444 215.598 49.992C215.314 49.6239 203.775 49.0237 201.39 49.2529C198.132 49.5657 194.569 50.6913 191.937 52.2395C188.58 54.2138 189.503 52.8099 193.269 50.2143C198.927 46.3151 201.919 41.7709 203.264 35.0322C203.703 32.835 203.852 30.822 203.715 28.9335C203.47 25.545 203.333 25.0367 200.885 18.4356L198.965 13.2613L193.614 15.2917C186.774 17.8871 182.971 20.3719 180.078 24.1359C177.267 27.7936 175.833 31.1827 175.197 35.672C174.605 39.8521 174.903 42.6097 176.436 47.1494C177.032 48.9114 177.778 51.1247 178.096 52.0682C180.154 58.1899 179.801 68.5536 177.064 82.3915C173.322 101.308 166.137 113.154 153.418 121.374C147.156 125.421 140.625 128.124 127.181 132.231C123.131 133.469 117.777 135.224 115.283 136.131L110.749 137.781L107.186 134.528C105.225 132.739 100.944 129.077 97.6703 126.39C86.8058 117.47 81.7964 112.483 77.5487 106.356C68.9074 93.8907 66.7848 80.2492 70.5377 61.304C73.2791 47.467 76.9015 37.7506 81.1366 32.8746C81.7895 32.1232 83.3227 30.3612 84.5446 28.959C87.6923 25.3459 89.0183 22.9098 90.0633 18.8193C91.1854 14.4262 91.1508 10.7464 89.9451 6.29348C88.7043 1.7112 86.1349 -2.035 80.8 -7.04034L76.6258 -10.9564L72.8798 -6.9036Z" fill="white"/>
<path fill-rule="evenodd" clip-rule="evenodd" d="M106.225 35.9284L105.852 37.8165L99.4021 36.5887C92.3772 35.2514 92.4664 35.2582 91.1852 35.9532C90.8599 36.1299 90.3849 36.5255 90.1294 36.8328C89.6768 37.3774 89.6344 37.5406 88.4305 43.3769C87.6211 47.3004 87.1745 49.7877 87.1338 50.597C87.0028 53.2138 87.5242 56.0449 88.6018 58.5653C89.7447 61.2387 92.4643 64.5249 94.9197 66.1992C95.9959 66.9331 98.1185 68.055 99.159 68.4398L99.6918 68.6369L99.4485 70.8547C98.8196 76.5856 100.049 81.8771 103.095 86.5547C104.635 88.9194 106.571 91.0208 108.682 92.6204C110.214 93.7807 112.849 95.3692 113.433 95.4849C113.559 95.5099 113.653 95.5801 113.641 95.6411C113.629 95.702 112.657 97.426 111.482 99.4723L109.345 103.193L104.484 102.232C97.3471 100.821 97.8788 100.571 93.945 107.19L91.2753 111.681L103.123 114.067C109.64 115.379 120.31 117.491 126.834 118.761L138.698 121.069L137.941 115.899C137.101 110.164 136.957 109.714 135.661 108.779C134.957 108.271 134.876 108.249 130.086 107.3L125.225 106.336L124.667 102.082C124.359 99.7425 124.118 97.7784 124.13 97.7176C124.142 97.6565 124.255 97.6272 124.382 97.6522C124.966 97.7679 128.007 97.3029 129.865 96.8137C132.427 96.1391 135.017 94.9337 137.342 93.3341C141.941 90.1699 145.093 85.7457 146.695 80.2075L147.315 78.0642L147.883 78.085C148.992 78.1256 151.382 77.897 152.656 77.6285C155.564 77.0159 159.331 75.0137 161.406 72.9773C163.362 71.0574 164.923 68.6386 165.799 66.1692C166.07 65.4055 166.604 62.9356 167.351 58.9996C168.461 53.1448 168.484 52.9778 168.273 52.3018C168.154 51.9204 167.866 51.3735 167.632 51.0863C166.712 49.9556 166.797 49.9833 159.793 48.5434L153.362 47.2215L153.736 45.3334L154.11 43.4454L130.354 38.7429L106.599 34.0404L106.225 35.9284ZM102.796 53.2499L101.307 60.773L100.979 60.6091C100.798 60.519 100.119 60.0498 99.4695 59.5664C98.5241 58.863 98.0729 58.3739 97.2104 57.1175C95.9909 55.3413 95.561 54.2568 95.3385 52.3939C95.1975 51.2149 95.2362 50.7972 95.7792 47.6312L96.3745 44.1609L100.33 44.9439L104.286 45.7269L102.796 53.2499ZM158.931 60.1324C158.061 63.9822 157.751 64.7435 156.366 66.435C154.631 68.5545 151.591 70.1748 149.338 70.1804L148.817 70.1816L150.307 62.6567L151.796 55.1319L155.752 55.9149L159.707 56.698L158.931 60.1324ZM128.275 58.6381L129.242 62.7329L133.33 63.621L137.418 64.5091L133.755 67.7463L130.091 70.9834L130.307 74.9893C130.426 77.1926 130.493 78.9891 130.454 78.9815C130.416 78.974 128.867 77.7092 127.012 76.1709C125.157 74.6326 123.579 73.362 123.504 73.3472C123.43 73.3325 121.486 73.9059 119.185 74.6214C116.884 75.3369 114.97 75.9162 114.931 75.9087C114.893 75.9011 115.639 74.2654 116.588 72.2736L118.315 68.6523L116.161 64.2635L114.007 59.8746L118.125 60.6109L122.243 61.3473L124.697 57.9299C126.048 56.0505 127.187 54.5195 127.23 54.5279C127.272 54.5363 127.742 56.3859 128.275 58.6381Z" fill="white"/>
</g>
</g>
<defs>
<linearGradient id="paint0_linear_97_20" x1="192.243" y1="-2.62277" x2="44.8571" y2="160.514" gradientUnits="userSpaceOnUse">
<stop stop-opacity="0.07"/>
<stop offset="1" stop-opacity="0"/>
</linearGradient>
<clipPath id="clip0_97_20">
<rect width="194.154" height="194.154" fill="white" transform="translate(41.6445 -33) rotate(12.0907)"/>
</clipPath>
</defs>
</svg>
