<svg width="26" height="27" viewBox="0 0 26 27" fill="none" xmlns="http://www.w3.org/2000/svg">
<path fill-rule="evenodd" clip-rule="evenodd"
      d="M21.3282 0.550659C18.4393 0.846303 15.4839 1.97631 12.9153 3.7674C11.8287 4.52507 11.1331
      5.13414 9.57231 6.69469L8.00782 8.25895L6.19212 8.27403L4.37643 8.28912L4.03002 8.45306C3.38041
      8.76049 3.2908 8.89153 2.11633 11.2518C1.15127 13.1911 1.07609 13.3619 1.07609 13.6155C1.07609
      13.9591 1.25669 14.2547 1.56813 14.4209C1.77404 14.5308 1.8453 14.537 3.09831 14.552L4.41247
      14.5679L4.38156 14.7044C4.29734 15.0763 4.29174 15.7653 4.37028 16.098C4.5491 16.8555 4.55886 16.8674 7.08795 19.3944C9.09425 21.3991 9.45154 21.7346 9.72577 21.8709C10.3181 22.1654 11.02 22.2537 11.6294 22.1103L11.9186 22.0423L11.9344 23.3682C11.9523 24.8785 11.9729 24.9666 12.3757 25.2509C12.5494 25.3735 12.6408 25.4015 12.8671 25.4015C13.1266 25.4015 13.2838 25.3326 15.2371 24.3621C17.5993 23.1886 17.7304 23.099 18.0381 22.4499L18.2022 22.1038L18.2173 20.2889L18.2324 18.474L19.7974 16.9114C20.7748 15.9356 21.5523 15.1104 21.8678 14.714C24.067 11.9513 25.3666 9.06645 25.8599 5.85281C25.9901 5.00473 26.0458 3.1206 25.9563 2.59046C25.7812 1.55344 25.0471 0.78175 24.031 0.566556C23.649 0.485649 22.055 0.476303 21.3282 0.550659ZM6.81626 1.60586C6.68446 1.66741 6.11827 2.19852 5.20663 3.11572C3.96318 4.36686 3.79326 4.55717 3.73902 4.75926C3.53011 5.53791 4.35447 6.22347 5.08805 5.88109C5.33665 5.76504 8.02947 3.07605 8.10938 2.86406C8.17861 2.68041 8.1785 2.31747 8.10917 2.13422C7.98581 1.80795 7.55141 1.51098 7.19749 1.51098C7.09964 1.51098 6.92809 1.5537 6.81626 1.60586ZM1.93659 2.26576C1.69266 2.37923 0.215542 3.8544 0.135638 4.06436C-0.0609217 4.58099 0.256511 5.22073 0.781787 5.3665C1.01911 5.43237 1.07548 5.43202 1.32663 5.3634C1.48807 5.31926 1.69617 5.14399 2.33627 4.51293C2.77976 4.07579 3.17435 3.64454 3.21308 3.55464C3.29695 3.36022 3.30488 2.99378 3.2295 2.79448C3.10614 2.46821 2.67174 2.17124 2.31782 2.17124C2.21997 2.17124 2.04842 2.2138 1.93659 2.26576ZM18.9646 5.14871C19.5399 5.28909 19.992 5.55366 20.4659 6.02716C21.1471 6.70789 21.4361 7.4034 21.4336 8.35692C21.4321 8.94811 21.3435 9.32024 21.0725 9.87339C20.5797 10.8794 19.5068 11.5761 18.3344 11.6515C16.7218 11.7553 15.2274 10.6153 14.8922 9.02556C14.8374 8.76552 14.82 8.49964 14.8375 8.18754C14.9556 6.08339 16.907 4.64656 18.9646 5.14871ZM23.5393 18.3155C23.4075 18.3771 22.8413 18.9082 21.9297 19.8254C20.6862 21.0765 20.5163 21.2668 20.4621 21.4689C20.253 22.248 21.1173 22.9583 21.8258 22.5897C22.0698 22.4629 24.7631 19.7617 24.8331 19.5737C24.9017 19.3894 24.9013 19.0265 24.8322 18.8439C24.7088 18.5176 24.2745 18.2207 23.9205 18.2207C23.8227 18.2207 23.6511 18.2634 23.5393 18.3155ZM3.15651 19.7775C2.8561 19.8173 2.4393 19.9573 2.11338 20.1278C1.07594 20.6705 0.419726 21.756 0.0972102 23.4631C-0.0194953 24.0809 -0.0361675 26.2793 0.0747942 26.4131C0.237348 26.6088 0.907032 26.4553 1.26523 26.1402C1.44496 25.9822 1.53676 25.8413 1.66638 25.5245C1.85699 25.0586 2.00409 24.8718 2.18042 24.8718C2.39452 24.8718 2.49384 25.0439 2.50157 25.4285C2.5095 25.8237 2.63189 26.2404 2.7792 26.3736C2.87644 26.4616 2.89936 26.4617 3.34138 26.377C4.8249 26.0928 5.93086 25.37 6.42995 24.3583C6.77484 23.6593 6.85931 23.0544 6.71633 22.3076C6.4052 20.6827 4.82119 19.5569 3.15651 19.7775ZM22.8531 23.175C22.5798 23.2931 21.1548 24.7497 21.0757 24.9918C20.8223 25.7671 21.4814 26.4972 22.2501 26.2927C22.4369 26.243 22.6024 26.1044 23.3 25.4131C24.0451 24.6749 24.1359 24.566 24.205 24.3288C24.4366 23.5336 23.6254 22.8413 22.8531 23.175Z"
      fill="#FFF243" fill-opacity="1"/>
</svg>
